<svg width="45" height="22" viewBox="0 0 45 22" fill="none" xmlns="http://www.w3.org/2000/svg">
  <path d="M9.486.468h3.712l2.349 6.815L17.925.468h3.683L18.07 9.835l2.61 6.554L26.509.41h4.35L22.623 21h-3.451l-3.625-8.642L11.95 21H8.5L.293.41h4.292l5.858 15.979 2.552-6.554L9.485.468Z" fill="#2196F3"/>
  <path d="M42.335 5.804c-.135-.135-.387-.319-.754-.551a7.404 7.404 0 0 0-1.305-.667 11.83 11.83 0 0 0-1.653-.551 6.522 6.522 0 0 0-1.827-.261c-1.083 0-1.904.203-2.465.609-.541.406-.812.976-.812 1.711 0 .56.174 1.005.522 1.334.348.329.87.609 1.566.841a41.03 41.03 0 0 0 2.61.754c1.353.329 2.523.735 3.51 1.218 1.004.464 1.768 1.083 2.29 1.856.541.754.812 1.76.812 3.016 0 1.102-.203 2.05-.609 2.842a5.099 5.099 0 0 1-1.682 1.885 7.726 7.726 0 0 1-2.436 1.073c-.909.213-1.875.319-2.9.319s-2.05-.106-3.074-.319a16.893 16.893 0 0 1-2.958-.899 14.159 14.159 0 0 1-2.61-1.45l1.77-3.451c.173.174.482.406.927.696.445.27.986.551 1.624.841.638.27 1.334.503 2.088.696a9.19 9.19 0 0 0 2.291.29c1.083 0 1.904-.184 2.465-.551.56-.367.841-.89.841-1.566 0-.619-.222-1.102-.667-1.45-.445-.348-1.063-.648-1.856-.899-.793-.27-1.73-.56-2.813-.87-1.295-.367-2.378-.773-3.248-1.218-.87-.464-1.518-1.044-1.943-1.74-.425-.696-.638-1.566-.638-2.61 0-1.411.329-2.59.986-3.538.677-.967 1.585-1.692 2.726-2.175 1.14-.503 2.407-.754 3.8-.754.966 0 1.874.106 2.725.319.87.213 1.682.493 2.436.841s1.43.725 2.03 1.131l-1.769 3.248Z" fill="#fff"/>
  <path d="M9.486.468v-.5h-.721l.253.675.468-.175Zm3.712 0 .473-.163-.117-.337h-.356v.5Zm2.349 6.815-.473.163.47 1.363.475-1.361-.472-.165ZM17.925.468v-.5h-.355l-.117.335.472.165Zm3.683 0 .468.177.255-.677h-.723v.5ZM18.07 9.835l-.468-.177-.069.182.072.18.465-.185Zm2.61 6.554-.465.185.485 1.218.45-1.232-.47-.171ZM26.509.41v-.5h-.35l-.12.329.47.171Zm4.35 0 .464.186.274-.686h-.738v.5ZM22.623 21v.5h.338l.126-.314-.464-.186Zm-3.451 0-.461.193.128.307h.333V21Zm-3.625-8.642.46-.193-.462-1.104-.46 1.105.462.192ZM11.95 21v.5h.333l.128-.308-.461-.192ZM8.5 21l-.465.185.126.315H8.5V21ZM.293.41v-.5h-.738l.273.685L.293.41Zm4.292 0 .47-.172-.121-.328h-.35v.5Zm5.858 15.979-.47.172.456 1.242.48-1.233-.466-.181Zm2.552-6.554.466.181.069-.178-.067-.178-.468.175ZM9.485.968h3.713v-1H9.486v1Zm3.24-.337 2.35 6.815.945-.326L13.67.305l-.945.326Zm3.294 6.817L18.397.633l-.944-.33-2.378 6.815.944.33Zm1.906-6.48h3.683v-1h-3.683v1ZM21.14.291l-3.538 9.367.936.354L22.076.645 21.14.29Zm-3.535 9.729 2.61 6.554.93-.37-2.61-6.554-.93.37Zm3.544 6.54L26.98.581l-.94-.342-5.829 15.979.94.342ZM26.51.91h4.35v-1h-4.35v1Zm3.886-.686-8.236 20.59.928.372L31.323.596l-.928-.372ZM22.623 20.5h-3.451v1h3.45v-1Zm-2.99.307-3.625-8.642-.922.386 3.625 8.642.922-.386Zm-4.548-8.641-3.596 8.642.923.384 3.596-8.642-.923-.384ZM11.951 20.5H8.5v1h3.45v-1Zm-2.987.315L.757.225l-.929.37 8.207 20.59.93-.37ZM.293.91h4.292v-1H.293v1ZM4.115.582l5.858 15.98.94-.345L5.053.237l-.939.345ZM10.91 16.57l2.552-6.554-.932-.362-2.552 6.554.932.362Zm2.554-6.91L9.954.293l-.936.35 3.509 9.367.936-.35Zm28.872-3.856-.354.354.473.472.32-.587-.439-.239Zm-.754-.551-.277.416.01.007.267-.423Zm-1.305-.667-.195.46.006.003.19-.463Zm-1.653-.551-.14.48.008.002.007.002.125-.484Zm-4.292.348-.293-.405-.007.005.3.4Zm1.276 3.886-.158.474.158-.474Zm2.61.754-.125.484.007.002.118-.486Zm3.51 1.218-.221.45.01.004.21-.454Zm2.29 1.856-.414.28.004.006.004.006.406-.292Zm.203 5.858.443.232.002-.004-.445-.228Zm-4.118 2.958.114.487.01-.002-.124-.485Zm-8.932-.899-.197.46.008.003.19-.463Zm-2.61-1.45-.445-.228-.198.386.354.25.29-.408Zm1.77-3.451.353-.354-.486-.485-.313.61.445.229Zm.927.696-.273.419.006.004.007.004.26-.427Zm1.624.841-.207.455.012.005.195-.46Zm2.088.696-.124.484.124-.484Zm4.756-.261-.274-.418.274.418Zm-1.682-3.915-.161.473.01.004.151-.477Zm-2.813-.87.137-.48v-.001l-.137.481Zm-3.248-1.218-.235.441.008.004.227-.445Zm-1.943-1.74-.427.26.427-.26Zm.348-6.148-.41-.287v.002l.41.285Zm2.726-2.175.195.46.007-.002-.202-.458Zm6.525-.435-.121.485h.002l.12-.485Zm2.436.841.21-.454-.21.454Zm2.03 1.131.44.24.216-.4-.375-.254-.28.414ZM42.69 5.45c-.178-.178-.472-.386-.84-.62l-.535.846c.365.23.575.389.667.482l.708-.708Zm-.83-.613a7.895 7.895 0 0 0-1.394-.714l-.378.926c.501.204.904.412 1.217.62l.554-.832Zm-1.388-.711a12.325 12.325 0 0 0-1.723-.575l-.25.968c.579.15 1.106.326 1.583.527l.39-.92Zm-1.708-.571a7.021 7.021 0 0 0-1.967-.281v1c.571 0 1.133.08 1.688.241l.279-.96Zm-1.967-.281c-1.133 0-2.076.21-2.758.704l.586.81c.44-.318 1.14-.514 2.172-.514v-1Zm-2.765.709c-.68.51-1.012 1.235-1.012 2.111h1c0-.593.209-1.008.612-1.311l-.6-.8ZM33.02 6.094c0 .673.214 1.258.679 1.698l.686-.728c-.23-.217-.365-.521-.365-.97h-1Zm.679 1.698c.421.398 1.02.707 1.751.951l.316-.948c-.66-.22-1.106-.471-1.38-.73l-.687.727Zm1.751.951c.71.237 1.592.492 2.643.764l.25-.968a40.546 40.546 0 0 1-2.577-.744l-.316.948Zm2.65.766c1.327.322 2.46.717 3.407 1.181l.44-.898c-1.026-.503-2.231-.92-3.61-1.255l-.237.972Zm3.418 1.186c.938.433 1.624.997 2.086 1.682l.828-.56c-.581-.862-1.423-1.535-2.495-2.03l-.42.908Zm2.094 1.694c.462.643.718 1.536.718 2.724h1c0-1.325-.285-2.443-.906-3.308l-.812.584Zm.718 2.724c0 1.041-.192 1.907-.554 2.614l.89.456c.45-.878.664-1.907.664-3.07h-1Zm-.552 2.61a4.598 4.598 0 0 1-1.519 1.703l.56.828a5.6 5.6 0 0 0 1.845-2.067l-.886-.464Zm-1.519 1.703a7.224 7.224 0 0 1-2.28 1.003l.248.969a8.224 8.224 0 0 0 2.592-1.144l-.56-.828Zm-2.27 1c-.868.203-1.796.306-2.786.306v1c1.06 0 2.065-.11 3.014-.332l-.228-.974Zm-2.786.306c-.99 0-1.98-.103-2.972-.309l-.203.98c1.057.219 2.115.329 3.175.329v-1Zm-2.972-.309a16.393 16.393 0 0 1-2.871-.872l-.378.926c.976.398 1.992.707 3.045.926l.204-.98Zm-2.863-.869a13.664 13.664 0 0 1-2.518-1.398l-.578.816a14.663 14.663 0 0 0 2.702 1.502l.394-.92Zm-2.362-.762 1.769-3.45-.89-.457-1.769 3.45.89.457Zm.97-3.325c.214.213.56.468 1.009.76l.546-.837c-.44-.287-.713-.496-.847-.63l-.707.707Zm1.022.77c.467.283 1.027.573 1.677.868l.414-.91a14.97 14.97 0 0 1-1.571-.813l-.52.854Zm1.689.873c.663.282 1.383.521 2.159.72l.248-.968a14.187 14.187 0 0 1-2.017-.672l-.39.92Zm2.159.72c.794.204 1.6.306 2.415.306v-1a8.688 8.688 0 0 1-2.167-.274l-.248.968Zm2.415.306c1.126 0 2.061-.188 2.74-.633l-.549-.836c-.443.29-1.151.469-2.19.469v1Zm2.74-.633c.702-.46 1.066-1.14 1.066-1.984h-1c0 .51-.197.874-.615 1.148l.548.836Zm1.066-1.984c0-.756-.28-1.391-.859-1.844l-.616.788c.31.243.475.574.475 1.056h1Zm-.859-1.844c-.508-.398-1.188-.72-2.013-.982l-.302.954c.76.24 1.318.518 1.699.816l.616-.788Zm-2.002-.978a59.561 59.561 0 0 0-2.838-.878l-.274.962a58.43 58.43 0 0 1 2.788.862l.324-.946Zm-2.838-.878c-1.275-.362-2.325-.757-3.157-1.182l-.456.89c.908.464 2.024.88 3.34 1.254l.273-.962Zm-3.15-1.178c-.807-.431-1.381-.954-1.751-1.56l-.854.522c.481.786 1.203 1.423 2.135 1.92l.47-.882Zm-1.751-1.56C30.1 8.483 29.9 7.71 29.9 6.732h-1c0 1.11.226 2.077.711 2.87l.854-.52ZM29.9 6.732c0-1.333.31-2.407.897-3.253l-.822-.57c-.727 1.048-1.075 2.333-1.075 3.823h1Zm.896-3.251c.62-.886 1.452-1.553 2.511-2.002l-.39-.92c-1.223.518-2.207 1.3-2.94 2.348l.819.574Zm2.518-2.004c1.07-.472 2.266-.712 3.597-.712v-1c-1.453 0-2.79.263-4 .796l.403.916Zm3.597-.712c.93 0 1.798.102 2.605.304l.242-.97a11.708 11.708 0 0 0-2.847-.334v1Zm2.607.305a12.88 12.88 0 0 1 2.346.809l.419-.908a13.88 13.88 0 0 0-2.527-.873l-.238.972Zm2.346.809c.732.338 1.385.702 1.959 1.091l.56-.828a14.794 14.794 0 0 0-2.1-1.171l-.42.908Zm1.8.438-1.769 3.248.878.478 1.77-3.248-.879-.478Z" fill="#000"/>
</svg>